<?xml version="1.0" encoding="utf-8"?>
<!-- Generator: Adobe Illustrator 18.0.0, SVG Export Plug-In . SVG Version: 6.00 Build 0)  -->
<!DOCTYPE svg PUBLIC "-//W3C//DTD SVG 1.1//EN" "http://www.w3.org/Graphics/SVG/1.1/DTD/svg11.dtd">
<svg version="1.1" id="Guides" xmlns="http://www.w3.org/2000/svg" xmlns:xlink="http://www.w3.org/1999/xlink" x="0px" y="0px"
	 viewBox="0 0 1000 1000" enable-background="new 0 0 1000 1000" xml:space="preserve">
<rect y="0" fill="#070909" width="1000.9" height="1003.1"/>
<g>
	<g>
		<path fill="#FFFFFF" d="M371.3,609.3c0.8-0.6,1.5-1.3,2-2.2c0.6-0.9,1.1-1.9,1.4-3c0.4-1.1,0.5-2.4,0.5-3.8c0-1.4-0.2-2.7-0.5-3.8
			c-0.3-1.1-0.8-2.1-1.4-3c-0.6-0.9-1.3-1.6-2-2.2c-0.8-0.6-1.6-1.1-2.5-1.5c-0.8-0.4-1.7-0.7-2.6-0.9c-0.9-0.2-1.7-0.3-2.5-0.3
			h-17.7c-1.7,0-3-0.5-4-1.5c-1-1-1.4-2.4-1.4-4c0-1.7,0.5-3,1.4-4c1-1,2.3-1.6,4-1.6h25.4v-6.1h-25.4c-1.2,0-2.4,0.2-3.8,0.6
			c-1.3,0.4-2.6,1.1-3.7,2c-1.1,0.9-2.1,2.1-2.9,3.6c-0.8,1.5-1.1,3.3-1.1,5.5c0,2.2,0.4,4,1.1,5.5c0.8,1.5,1.7,2.7,2.9,3.6
			c1.1,0.9,2.4,1.6,3.7,2c1.3,0.4,2.6,0.6,3.8,0.6h17.7c0.8,0,1.6,0.1,2.2,0.4c0.7,0.3,1.3,0.7,1.8,1.2c0.5,0.5,0.8,1.1,1.1,1.8
			c0.3,0.7,0.4,1.4,0.4,2.2c0,1.7-0.5,3-1.4,4c-1,1-2.3,1.5-4,1.5h-28.8v6.1h28.8c0.8,0,1.6-0.1,2.5-0.3c0.9-0.2,1.7-0.5,2.6-0.9
			C369.7,610.4,370.5,609.9,371.3,609.3z"/>
		<path fill="#FFFFFF" d="M390.7,612.6h6.8l15.4-31.5l15.4,31.5h6.8l-19.5-39.7c-0.3-0.5-0.6-0.9-1.1-1.2c-1-0.6-2.3-0.6-3.3,0
			c-0.5,0.3-0.9,0.7-1.1,1.2L390.7,612.6z"/>
		<path fill="#FFFFFF" d="M485.4,612h9.5l-16-13.9h2.1c0.9,0,1.9-0.1,2.9-0.3c1-0.2,2-0.5,3-1c1-0.5,2-1,2.9-1.8
			c0.9-0.7,1.7-1.6,2.4-2.5c0.7-1,1.2-2.1,1.7-3.4c0.4-1.3,0.6-2.8,0.6-4.5v-4.9c0-0.9-0.1-1.8-0.4-2.8c-0.3-1-0.8-1.9-1.5-2.8
			c-0.7-0.8-1.6-1.6-2.6-2.1c-1.1-0.6-2.4-0.8-4-0.8h-29.2c-0.5,0-0.9,0.1-1.2,0.2c-0.4,0.2-0.7,0.4-1,0.6c-0.3,0.3-0.5,0.6-0.6,1
			c-0.2,0.4-0.2,0.8-0.2,1.2V612h6.1v-34.7h26.1c0.2,0,0.4,0,0.6,0c0.3,0,0.6,0.1,0.9,0.3c0.3,0.2,0.5,0.5,0.7,0.8
			c0.2,0.3,0.2,0.8,0.2,1.3v4.8c0,1.1-0.2,2.1-0.5,3c-0.4,0.9-0.9,1.6-1.5,2.3c-0.6,0.6-1.4,1.1-2.3,1.5c-0.9,0.4-1.8,0.6-2.9,0.7
			l-16.6,0v6.1h5L485.4,612z"/>
		<path fill="#FFFFFF" d="M517.5,574.7c-0.5,0.7-1,1.4-1.3,2.1c-0.3,0.7-0.6,1.5-0.7,2.3c-0.2,0.8-0.2,1.5-0.2,2.1V602
			c0,1.2,0.2,2.4,0.5,3.3c0.3,1,0.7,1.8,1.2,2.6c0.5,0.7,1.1,1.4,1.8,1.9c0.7,0.5,1.4,0.9,2.1,1.3c0.7,0.3,1.5,0.6,2.3,0.7
			c0.8,0.2,1.5,0.2,2.1,0.2h26.9v-6.1h-26.9c-1.2,0-2.2-0.4-2.8-1c-0.7-0.7-1-1.7-1-2.8v-20.7c0-1.3,0.3-2.2,1-2.9
			c0.7-0.7,1.6-1,2.9-1h26.9v-6.1h-26.9c-1.2,0-2.3,0.2-3.3,0.5c-1,0.3-1.8,0.7-2.5,1.2C518.6,573.4,518,574,517.5,574.7z"/>
		<path fill="#FFFFFF" d="M571.5,612.6h6.8l15.4-31.5l15.4,31.5h6.8l-19.5-39.7c-0.3-0.5-0.6-0.9-1.1-1.2c-1-0.6-2.3-0.6-3.3,0
			c-0.5,0.3-0.9,0.7-1.1,1.2L571.5,612.6z"/>
		<polygon fill="#FFFFFF" points="666.3,571.2 626.3,571.2 626.3,577.3 643.3,577.3 643.3,612 649.4,612 649.4,577.3 666.3,577.3 		
			"/>
	</g>
	<g>
		<linearGradient id="SVGID_1_" gradientUnits="userSpaceOnUse" x1="394.0984" y1="513.0637" x2="692.3885" y2="412.7566">
			<stop  offset="0" style="stop-color:#5E2D91"/>
			<stop  offset="0.2433" style="stop-color:#6C2C91"/>
			<stop  offset="0.2805" style="stop-color:#693594"/>
			<stop  offset="0.3477" style="stop-color:#614B9F"/>
			<stop  offset="0.437" style="stop-color:#4F68B1"/>
			<stop  offset="0.5452" style="stop-color:#148ACB"/>
			<stop  offset="0.6683" style="stop-color:#00B7F1"/>
			<stop  offset="1" style="stop-color:#20C4F4"/>
		</linearGradient>
		<path fill="url(#SVGID_1_)" d="M499.8,513.9c-1-1-2.8-1-3.8,0c-0.5,0.5-0.8,1.2-0.8,1.9c0,0.7,0.3,1.4,0.8,1.9l20.7,20.7
			c0.5,0.5,1.2,0.8,1.9,0.8s1.4-0.3,1.9-0.8c0.5-0.5,0.8-1.2,0.8-1.9c0-0.7-0.3-1.4-0.8-1.9L499.8,513.9z M458.2,411.5h26.5
			c1.5,0,2.7-1.2,2.7-2.7c0-1.5-1.2-2.7-2.7-2.7h-26.5c-1.5,0-2.7,1.2-2.7,2.7C455.5,410.3,456.7,411.5,458.2,411.5z M470.1,483.2
			c-0.9,0-1.7,0.4-2.2,1.2l-20.5,29.9c-0.8,1.2-0.5,2.9,0.7,3.7c0.4,0.3,1,0.5,1.5,0.5c0.9,0,1.7-0.4,2.2-1.2l20.4-29.9
			c0.8-1.2,0.5-2.9-0.7-3.7C471.2,483.3,470.7,483.2,470.1,483.2z M456.6,467.4c-0.5-0.3-1-0.5-1.6-0.5c-0.8,0-1.7,0.4-2.2,1.1
			l-41.7,56.6c-0.9,1.2-0.6,2.9,0.6,3.7c0.5,0.3,1,0.5,1.6,0.5c0.9,0,1.7-0.4,2.2-1.1l41.7-56.6
			C458.1,469.9,457.8,468.2,456.6,467.4z M522.4,492.9c0-1.5-1.2-2.7-2.7-2.7l-26.9,0.1l-25-35.3c-0.5-0.7-1.3-1.1-2.2-1.1
			c-0.6,0-1.1,0.2-1.5,0.5c-1.2,0.9-1.5,2.5-0.6,3.7l25.9,36.5c0.5,0.7,1.3,1.1,2.2,1.1h0l28.3-0.1
			C521.2,495.5,522.4,494.3,522.4,492.9z M431.7,468.5c0.8,0,1.6-0.4,2.1-1l23.8-30.1l27,0.1c1.5,0,2.7-1.2,2.7-2.7
			c0-0.7-0.3-1.4-0.8-1.9c-0.5-0.5-1.2-0.8-1.9-0.8l-28.3-0.1c-0.8,0-1.6,0.4-2.1,1l-24.6,31.1c-0.4,0.6-0.6,1.3-0.6,2
			c0.1,0.7,0.4,1.3,1,1.8C430.5,468.3,431.1,468.5,431.7,468.5z M589.3,450.4l-25.1-21.2V423c0-0.9-0.5-1.7-1.2-2.2l-29.3-18.9
			c-0.4-0.3-0.9-0.4-1.5-0.4h-23.6l-12.3-10.3c-0.5-0.4-1.1-0.6-1.7-0.6c-0.8,0-1.5,0.4-2,1c-0.4,0.5-0.6,1-0.6,1.6
			c0,0.1,0,0.1,0,0.2v27.8h-20.3c-1.5,0-2.7,1.2-2.7,2.7c0,1.5,1.2,2.7,2.7,2.7h22.4c0.9,0,1.7-0.5,2.1-1.1c0.7-0.5,1.2-1.2,1.2-2.2
			v-24.3l27.5,23c0.5,0.4,1.1,0.6,1.7,0.6c0.8,0,1.5-0.3,2.1-1c0.9-1.1,0.8-2.8-0.3-3.8l-13.2-11h16.4l27.4,17.7v5.9
			c0,0.8,0.3,1.5,0.9,2l24.2,20.4l-5.7,8l-5.2-4.5c-1.1-0.9-2.8-0.8-3.8,0.3c-0.5,0.5-0.7,1.2-0.6,2c0.1,0.7,0.4,1.4,0.9,1.8
			l7.4,6.3l3.2,3l-0.2,14.2c0,0,0,0,0,0l-22.1,15.5l-23-18.4c-0.5-0.4-1.1-0.6-1.7-0.6l-28.3,0.1c-1.5,0-2.7,1.2-2.7,2.7
			c0,1.5,1.2,2.7,2.7,2.7l27.4-0.1l17.9,14.3l-28.5,0c0,0,0,0-0.1,0c0,0,0,0-0.1,0l-8.5,0c-1.5,0-2.7,1.2-2.7,2.7
			c0,1.5,1.2,2.7,2.7,2.7l5.9,0v14.1c0,0.8,0.3,1.5,0.9,2l29.7,26.7c0.5,0.4,1.1,0.7,1.8,0.7c0.8,0,1.5-0.3,2-0.9
			c0.5-0.5,0.7-1.2,0.7-1.9c0-0.7-0.4-1.4-0.9-1.8l-28.8-25.9v-12.9l32.2,0l7,9c0.5,0.7,1.3,1,2.1,1c0.6,0,1.2-0.2,1.6-0.6
			l16.8-12.9c0.7-0.5,1-1.2,1-2.1l0.5-31.3c0-0.8-0.3-1.5-0.9-2l-2.4-2.2l7.4-10.5C590.5,452.8,590.3,451.3,589.3,450.4z
			 M579.7,498.6l-13.6,10.5l-4.5-5.7l18.2-12.8L579.7,498.6z M541.5,441.4c1.1,1.1,2.9,1.1,4,0l5.8-5.8c1.1-1.1,1.1-2.9,0-4
			c-0.4-0.4-1-0.6-1.5-0.7c0,0-0.1,0-0.1,0c-0.2,0-0.3-0.1-0.5,0h-16.6c-1.5,0-2.7,1.2-2.7,2.7v0.3c0,1.5,1.2,2.7,2.7,2.7h9.9
			l-0.9,0.9C540.4,438.5,540.4,440.3,541.5,441.4z"/>
	</g>
</g>
</svg>
