<?xml version="1.0" encoding="utf-8"?>
<!-- Generator: Adobe Illustrator 18.0.0, SVG Export Plug-In . SVG Version: 6.00 Build 0)  -->
<!DOCTYPE svg PUBLIC "-//W3C//DTD SVG 1.1//EN" "http://www.w3.org/Graphics/SVG/1.1/DTD/svg11.dtd">
<svg version="1.1" id="Guides" xmlns="http://www.w3.org/2000/svg" xmlns:xlink="http://www.w3.org/1999/xlink" x="0px" y="0px"
	 viewBox="0 0 1000 1000" enable-background="new 0 0 1000 1000" xml:space="preserve">
<rect y="0" fill="#090A0B" width="1000.9" height="1003.1"/>
<g>
	<g>
		<path fill="#FFFFFF" d="M472.9,527.2c0.7-0.5,1.3-1.2,1.8-1.9c0.5-0.8,0.9-1.7,1.3-2.7c0.3-1,0.5-2.1,0.5-3.4
			c0-1.3-0.2-2.4-0.5-3.4c-0.3-1-0.7-1.9-1.2-2.6c-0.5-0.8-1.1-1.4-1.8-2c-0.7-0.5-1.4-1-2.2-1.4c-0.7-0.4-1.5-0.6-2.3-0.8
			c-0.8-0.2-1.5-0.3-2.2-0.3h-15.7c-1.5,0-2.7-0.5-3.5-1.4c-0.8-0.9-1.3-2.1-1.3-3.6c0-1.5,0.4-2.7,1.3-3.6c0.9-0.9,2-1.4,3.5-1.4
			h22.4v-5.4h-22.4c-1,0-2.2,0.2-3.3,0.6c-1.2,0.4-2.3,1-3.3,1.8c-1,0.8-1.9,1.9-2.5,3.2c-0.7,1.3-1,2.9-1,4.8c0,1.9,0.3,3.6,1,4.9
			c0.7,1.3,1.5,2.4,2.5,3.2c1,0.8,2.1,1.4,3.3,1.8c1.2,0.4,2.3,0.6,3.3,0.6h15.6c0.7,0,1.4,0.1,2,0.4c0.6,0.2,1.1,0.6,1.6,1.1
			c0.4,0.5,0.7,1,1,1.6c0.2,0.6,0.3,1.3,0.3,2c0,1.5-0.4,2.7-1.3,3.6c-0.9,0.9-2,1.4-3.6,1.4h-25.5v5.4h25.5c0.7,0,1.4-0.1,2.2-0.2
			c0.8-0.2,1.5-0.4,2.3-0.8C471.5,528.2,472.2,527.8,472.9,527.2z"/>
		<path fill="#FFFFFF" d="M490,530.1h6l13.7-27.9l13.6,27.9h6.1L512.2,495c-0.2-0.4-0.6-0.8-1-1.1c-0.9-0.6-2-0.5-2.9,0
			c-0.4,0.3-0.8,0.6-1,1.1L490,530.1z"/>
		<path fill="#FFFFFF" d="M573.9,529.6h8.4l-14.2-12.3h1.9c0.8,0,1.6-0.1,2.5-0.3c0.9-0.2,1.8-0.5,2.7-0.9c0.9-0.4,1.7-0.9,2.5-1.6
			c0.8-0.6,1.5-1.4,2.1-2.2c0.6-0.9,1.1-1.9,1.5-3c0.4-1.1,0.5-2.5,0.5-3.9V501c0-0.8-0.1-1.6-0.4-2.5c-0.3-0.9-0.7-1.7-1.3-2.5
			c-0.6-0.7-1.4-1.4-2.3-1.9c-0.9-0.5-2.1-0.7-3.5-0.7h-25.8c-0.4,0-0.8,0.1-1.1,0.2c-0.3,0.1-0.6,0.3-0.9,0.6
			c-0.2,0.2-0.4,0.5-0.6,0.9c-0.1,0.3-0.2,0.7-0.2,1.1v33.4h5.4v-30.7h23.1c0.2,0,0.3,0,0.5,0c0.3,0,0.5,0.1,0.8,0.3
			c0.3,0.2,0.5,0.4,0.6,0.7c0.1,0.3,0.2,0.7,0.2,1.2v4.3c0,1-0.2,1.9-0.5,2.6c-0.3,0.8-0.8,1.5-1.4,2c-0.6,0.5-1.3,1-2,1.3
			c-0.8,0.3-1.6,0.5-2.5,0.6l-14.7,0v5.4h4.4L573.9,529.6z"/>
		<path fill="#FFFFFF" d="M602.2,496.6c-0.5,0.6-0.8,1.2-1.1,1.9c-0.3,0.7-0.5,1.3-0.6,2c-0.1,0.7-0.2,1.3-0.2,1.9v18.4
			c0,1.1,0.1,2.1,0.4,2.9c0.3,0.9,0.6,1.6,1.1,2.3c0.5,0.7,1,1.2,1.6,1.7c0.6,0.5,1.2,0.8,1.9,1.1c0.7,0.3,1.3,0.5,2,0.6
			c0.7,0.1,1.3,0.2,1.9,0.2h23.8v-5.4h-23.8c-1.1,0-1.9-0.3-2.5-0.9c-0.6-0.6-0.9-1.5-0.9-2.5v-18.3c0-1.1,0.3-2,0.9-2.6
			c0.6-0.6,1.5-0.9,2.5-0.9h23.8v-5.4h-23.8c-1.1,0-2.1,0.1-2.9,0.4c-0.9,0.3-1.6,0.6-2.3,1.1C603.2,495.4,602.7,496,602.2,496.6z"
			/>
		<path fill="#FFFFFF" d="M650.1,530.1h6l13.7-27.9l13.6,27.9h6.1L672.2,495c-0.2-0.4-0.6-0.8-1-1.1c-0.9-0.6-2-0.5-2.9,0
			c-0.4,0.3-0.8,0.6-1,1.1L650.1,530.1z"/>
		<polygon fill="#FFFFFF" points="733.9,493.5 698.5,493.5 698.5,498.9 713.5,498.9 713.5,529.6 718.9,529.6 718.9,498.9 
			733.9,498.9 		"/>
	</g>
	<path fill="#070909" d="M376.9,474.9h-14.9c-0.7,0-1.4-0.6-1.4-1.4v-1.8c0-0.7,0.6-1.4,1.4-1.4h14.9c0.7,0,1.4,0.6,1.4,1.4v1.8
		C378.2,474.3,377.6,474.9,376.9,474.9z"/>
	<linearGradient id="SVGID_1_" gradientUnits="userSpaceOnUse" x1="249.7342" y1="536.223" x2="488.5815" y2="455.9049">
		<stop  offset="0" style="stop-color:#5E2D91"/>
		<stop  offset="0.2433" style="stop-color:#6C2C91"/>
		<stop  offset="0.3035" style="stop-color:#633899"/>
		<stop  offset="0.4118" style="stop-color:#4A57AF"/>
		<stop  offset="0.5549" style="stop-color:#238AD2"/>
		<stop  offset="0.6683" style="stop-color:#00B7F1"/>
		<stop  offset="1" style="stop-color:#20C4F4"/>
	</linearGradient>
	<path fill="url(#SVGID_1_)" d="M334.4,536.9c-0.8-0.8-2.2-0.8-3,0c-0.4,0.4-0.6,0.9-0.6,1.5c0,0.6,0.2,1.1,0.6,1.5l16.6,16.6
		c0.4,0.4,0.9,0.6,1.5,0.6s1.1-0.2,1.5-0.6c0.4-0.4,0.6-0.9,0.6-1.5c0-0.6-0.2-1.1-0.6-1.5L334.4,536.9z M301,454.9h21.2
		c1.2,0,2.1-1,2.1-2.1c0-1.2-1-2.1-2.1-2.1H301c-1.2,0-2.1,1-2.1,2.1C298.9,454,299.9,454.9,301,454.9z M310.6,512.3
		c-0.7,0-1.4,0.4-1.8,0.9l-16.4,24c-0.7,1-0.4,2.3,0.6,3c0.4,0.2,0.8,0.4,1.2,0.4c0.7,0,1.4-0.3,1.8-0.9l16.4-24
		c0.7-1,0.4-2.3-0.6-3C311.5,512.4,311,512.3,310.6,512.3z M299.8,499.6c-0.4-0.3-0.8-0.4-1.3-0.4c-0.7,0-1.3,0.3-1.7,0.9
		l-33.4,45.3c-0.7,0.9-0.5,2.3,0.5,3c0.4,0.3,0.8,0.4,1.3,0.4c0.7,0,1.3-0.3,1.7-0.9l33.4-45.3C301,501.7,300.8,500.3,299.8,499.6z
		 M352.5,520c0-1.2-1-2.1-2.1-2.1l-21.6,0.1l-20.1-28.3c-0.4-0.6-1.1-0.9-1.8-0.9c-0.4,0-0.9,0.1-1.2,0.4c-1,0.7-1.2,2-0.5,3
		l20.7,29.2c0.4,0.6,1.1,0.9,1.7,0.9h0l22.7-0.1C351.5,522.2,352.5,521.2,352.5,520z M279.8,500.5c0.7,0,1.3-0.3,1.7-0.8l19.1-24.1
		l21.6,0.1c1.2,0,2.1-1,2.1-2.1c0-0.6-0.2-1.1-0.6-1.5c-0.4-0.4-0.9-0.6-1.5-0.6l-22.7-0.1c-0.6,0-1.3,0.3-1.7,0.8L278.2,497
		c-0.4,0.4-0.5,1-0.4,1.6c0.1,0.6,0.4,1.1,0.8,1.4C278.9,500.3,279.4,500.5,279.8,500.5z M406,486l-20.1-17v-4.9
		c0-0.7-0.4-1.4-1-1.8l-23.5-15.2c-0.4-0.2-0.8-0.3-1.2-0.3h-18.9l-9.9-8.3c-0.4-0.3-0.9-0.5-1.4-0.5c-0.6,0-1.2,0.3-1.6,0.8
		c-0.3,0.4-0.5,0.8-0.5,1.3c0,0.1,0,0.1,0,0.2v22.3h-16.3c-1.2,0-2.1,1-2.1,2.1c0,1.2,1,2.1,2.1,2.1h17.9c0.7,0,1.3-0.4,1.7-0.9
		c0.6-0.4,0.9-1,0.9-1.7v-19.4l22,18.4c0.4,0.3,0.9,0.5,1.4,0.5c0.6,0,1.2-0.3,1.6-0.8c0.8-0.9,0.6-2.3-0.3-3l-10.5-8.8h13.2
		l22,14.2v4.7c0,0.6,0.3,1.2,0.8,1.6l19.4,16.4l-4.5,6.4l-4.2-3.6c-0.9-0.7-2.3-0.6-3,0.2c-0.4,0.4-0.6,1-0.5,1.6
		c0,0.6,0.3,1.1,0.7,1.5l5.9,5l2.6,2.4l-0.2,11.4c0,0,0,0,0,0l-17.7,12.4l-18.4-14.7c-0.4-0.3-0.9-0.5-1.3-0.5l-22.7,0.1
		c-1.2,0-2.1,1-2.1,2.2c0,1.2,1,2.1,2.1,2.1l21.9-0.1l14.3,11.4l-22.8,0c0,0,0,0,0,0c0,0,0,0,0,0l-6.8,0c-1.2,0-2.1,1-2.1,2.1
		c0,1.2,1,2.1,2.1,2.1l4.8,0v11.3c0,0.6,0.3,1.2,0.7,1.6l23.7,21.4c0.4,0.4,0.9,0.5,1.4,0.5c0.6,0,1.2-0.3,1.6-0.7
		c0.4-0.4,0.6-1,0.5-1.5c0-0.6-0.3-1.1-0.7-1.5l-23-20.7v-10.4l25.8,0l5.6,7.2c0.4,0.5,1,0.8,1.7,0.8c0.5,0,0.9-0.2,1.3-0.4
		l13.4-10.3c0.5-0.4,0.8-1,0.8-1.7l0.4-25.1c0-0.6-0.2-1.2-0.7-1.6l-1.9-1.8l5.9-8.4C407,488,406.9,486.7,406,486z M398.4,524.7
		l-10.9,8.4l-3.6-4.6l14.6-10.2L398.4,524.7z M367.8,478.9c0.9,0.9,2.3,0.9,3.2,0l4.6-4.6c0.9-0.9,0.9-2.3,0-3.2
		c-0.3-0.3-0.8-0.5-1.2-0.6c0,0-0.1,0-0.1,0c-0.1,0-0.3,0-0.4,0h-13.3c-1.2,0-2.1,1-2.1,2.1v0.3c0,1.2,1,2.1,2.1,2.1h7.9l-0.7,0.7
		C366.9,476.5,366.9,478,367.8,478.9z"/>
</g>
</svg>
